#Comment line ignore any data following # character 
#Hierarchical Translation and Rotation (.htr) file 
[Header]	
#Header keywords are followed by a single value 
FileType HTR		#Single word string
DataType HTRS		#Translation followed by rotation and scale data
FileVersion 1		#integer
NumSegments 84		#integer
NumFrames 2		#integer
DataFrameRate 30		#integer, data frame rate in this file
EulerRotationOrder ZYX
CalibrationUnits mm
RotationUnits Degrees
GlobalAxisofGravity Y
BoneLengthAxis Y
ScaleFactor 1.00
[SegmentNames&Hierarchy]
#CHILD	PARENT
MASTER GLOBAL
root MASTER
chest root
L_mid_tent01 root
R_mid_tent01 root
spine01 root
Bip01_Neck chest
L_humerus chest
R_humerus chest
weapon_bone chest
Bip01_Head Bip01_Neck
eye_left_bone Bip01_Head
eye_right_bone Bip01_Head
L_forearm L_humerus
L_front_hand L_forearm
L_weapon_bone L_forearm
L_front_hand01_01 L_front_hand
L_front_hand02_01 L_front_hand
L_front_hand03_01 L_front_hand
L_front_hand01_02 L_front_hand01_01
L_front_hand02_02 L_front_hand02_01
L_front_hand03_02 L_front_hand03_01
R_forearm R_humerus
R_front_hand R_forearm
R_weapon_bone R_forearm
R_front_hand01_01 R_front_hand
R_front_hand02_01 R_front_hand
R_front_hand03_01 R_front_hand
R_front_hand01_02 R_front_hand01_01
R_front_hand02_02 R_front_hand02_01
R_front_hand03_02 R_front_hand03_01
null_rope01_connect L_mid_tent01
Rope1_Seg01 null_rope01_connect
Rope1_Seg02 Rope1_Seg01
Rope1_Seg03 Rope1_Seg02
Rope1_Seg04 Rope1_Seg03
Rope1_Seg05 Rope1_Seg04
Rope1_Seg06 Rope1_Seg05
Rope1_Seg07 Rope1_Seg06
Rope1_Seg09 Rope1_Seg07
L_mid_hand01 Rope1_Seg09
L_mid_hand02 Rope1_Seg09
L_mid_hand03 Rope1_Seg09
null_rope02_connect R_mid_tent01
Rope2_Seg01 null_rope02_connect
Rope2_Seg02 Rope2_Seg01
Rope2_Seg03 Rope2_Seg02
Rope2_Seg04 Rope2_Seg03
Rope2_Seg05 Rope2_Seg04
Rope2_Seg06 Rope2_Seg05
Rope2_Seg07 Rope2_Seg06
Rope2_Seg09 Rope2_Seg07
R_mid_hand01 Rope2_Seg09
R_mid_hand02 Rope2_Seg09
R_mid_hand03 Rope2_Seg09
spine02 spine01
spine03 spine02
pelvis spine03
null_rope03_connect pelvis
null_rope04_connect pelvis
Rope3_Seg01 null_rope03_connect
Rope3_Seg02 Rope3_Seg01
Rope3_Seg03 Rope3_Seg02
Rope3_Seg04 Rope3_Seg03
Rope3_Seg05 Rope3_Seg04
Rope3_Seg06 Rope3_Seg05
Rope3_Seg07 Rope3_Seg06
Rope3_Seg08 Rope3_Seg07
Rope3_Seg09 Rope3_Seg08
R_rear_hand01 Rope3_Seg09
R_rear_hand02 Rope3_Seg09
R_rear_hand03 Rope3_Seg09
Rope4_Seg01 null_rope04_connect
Rope4_Seg02 Rope4_Seg01
Rope4_Seg03 Rope4_Seg02
Rope4_Seg04 Rope4_Seg03
Rope4_Seg05 Rope4_Seg04
Rope4_Seg06 Rope4_Seg05
Rope4_Seg07 Rope4_Seg06
Rope4_Seg08 Rope4_Seg07
Rope4_Seg09 Rope4_Seg08
L_rear_hand01 Rope4_Seg09
L_rear_hand02 Rope4_Seg09
L_rear_hand03 Rope4_Seg09
[BasePosition]
#SegmentName Tx, Ty, Tz, Rx, Ry, Rz, BoneLength
MASTER 0.000000 0.000000 0.000000 -90.000000 0.000000 0.000000 10.000000 
root 0.000000 0.000000 0.000000 0.000000 0.000000 0.000000 10.000000 
chest 0.000000 0.000000 0.000000 0.000000 0.000000 0.000000 10.000000 
L_mid_tent01 0.000000 0.000000 0.000000 0.000000 0.000000 0.000000 10.000000 
R_mid_tent01 0.000000 0.000000 0.000000 0.000000 0.000000 0.000000 10.000000 
spine01 0.000000 0.000000 0.000000 0.000000 0.000000 0.000000 10.000000 
Bip01_Neck 0.000000 0.000000 0.000000 0.000000 0.000000 0.000000 10.000000 
L_humerus 0.000000 0.000000 0.000000 0.000000 0.000000 0.000000 10.000000 
R_humerus 0.000000 0.000000 0.000000 0.000000 0.000000 0.000000 10.000000 
weapon_bone 0.000000 0.000000 0.000000 0.000000 0.000000 0.000000 10.000000 
Bip01_Head 0.000000 0.000000 0.000000 0.000000 0.000000 0.000000 10.000000 
eye_left_bone 0.000000 0.000000 0.000000 0.000000 0.000000 0.000000 10.000000 
eye_right_bone 0.000000 0.000000 0.000000 0.000000 0.000000 0.000000 10.000000 
L_forearm 0.000000 0.000000 0.000000 0.000000 0.000000 0.000000 10.000000 
L_front_hand 0.000000 0.000000 0.000000 0.000000 0.000000 0.000000 10.000000 
L_weapon_bone 0.000000 0.000000 0.000000 0.000000 0.000000 0.000000 10.000000 
L_front_hand01_01 0.000000 0.000000 0.000000 0.000000 0.000000 0.000000 10.000000 
L_front_hand02_01 0.000000 0.000000 0.000000 0.000000 0.000000 0.000000 10.000000 
L_front_hand03_01 0.000000 0.000000 0.000000 0.000000 0.000000 0.000000 10.000000 
L_front_hand01_02 0.000000 0.000000 0.000000 0.000000 0.000000 0.000000 10.000000 
L_front_hand02_02 0.000000 0.000000 0.000000 0.000000 0.000000 0.000000 10.000000 
L_front_hand03_02 0.000000 0.000000 0.000000 0.000000 0.000000 0.000000 10.000000 
R_forearm 0.000000 0.000000 0.000000 0.000000 0.000000 0.000000 10.000000 
R_front_hand 0.000000 0.000000 0.000000 0.000000 0.000000 0.000000 10.000000 
R_weapon_bone 0.000000 0.000000 0.000000 0.000000 0.000000 0.000000 10.000000 
R_front_hand01_01 0.000000 0.000000 0.000000 0.000000 0.000000 0.000000 10.000000 
R_front_hand02_01 0.000000 0.000000 0.000000 0.000000 0.000000 0.000000 10.000000 
R_front_hand03_01 0.000000 0.000000 0.000000 0.000000 0.000000 0.000000 10.000000 
R_front_hand01_02 0.000000 0.000000 0.000000 0.000000 0.000000 0.000000 10.000000 
R_front_hand02_02 0.000000 0.000000 0.000000 0.000000 0.000000 0.000000 10.000000 
R_front_hand03_02 0.000000 0.000000 0.000000 0.000000 0.000000 0.000000 10.000000 
null_rope01_connect 0.000000 0.000000 0.000000 0.000000 0.000000 0.000000 10.000000 
Rope1_Seg01 0.000000 0.000000 0.000000 0.000000 0.000000 0.000000 10.000000 
Rope1_Seg02 0.000000 0.000000 0.000000 0.000000 0.000000 0.000000 10.000000 
Rope1_Seg03 0.000000 0.000000 0.000000 0.000000 0.000000 0.000000 10.000000 
Rope1_Seg04 0.000000 0.000000 0.000000 0.000000 0.000000 0.000000 10.000000 
Rope1_Seg05 0.000000 0.000000 0.000000 0.000000 0.000000 0.000000 10.000000 
Rope1_Seg06 0.000000 0.000000 0.000000 0.000000 0.000000 0.000000 10.000000 
Rope1_Seg07 0.000000 0.000000 0.000000 0.000000 0.000000 0.000000 10.000000 
Rope1_Seg09 0.000000 0.000000 0.000000 0.000000 0.000000 0.000000 10.000000 
L_mid_hand01 0.000000 0.000000 0.000000 0.000000 0.000000 0.000000 10.000000 
L_mid_hand02 0.000000 0.000000 0.000000 0.000000 0.000000 0.000000 10.000000 
L_mid_hand03 0.000000 0.000000 0.000000 0.000000 0.000000 0.000000 10.000000 
null_rope02_connect 0.000000 0.000000 0.000000 0.000000 0.000000 0.000000 10.000000 
Rope2_Seg01 0.000000 0.000000 0.000000 0.000000 0.000000 0.000000 10.000000 
Rope2_Seg02 0.000000 0.000000 0.000000 0.000000 0.000000 0.000000 10.000000 
Rope2_Seg03 0.000000 0.000000 0.000000 0.000000 0.000000 0.000000 10.000000 
Rope2_Seg04 0.000000 0.000000 0.000000 0.000000 0.000000 0.000000 10.000000 
Rope2_Seg05 0.000000 0.000000 0.000000 0.000000 0.000000 0.000000 10.000000 
Rope2_Seg06 0.000000 0.000000 0.000000 0.000000 0.000000 0.000000 10.000000 
Rope2_Seg07 0.000000 0.000000 0.000000 0.000000 0.000000 0.000000 10.000000 
Rope2_Seg09 0.000000 0.000000 0.000000 0.000000 0.000000 0.000000 10.000000 
R_mid_hand01 0.000000 0.000000 0.000000 0.000000 0.000000 0.000000 10.000000 
R_mid_hand02 0.000000 0.000000 0.000000 0.000000 0.000000 0.000000 10.000000 
R_mid_hand03 0.000000 0.000000 0.000000 0.000000 0.000000 0.000000 10.000000 
spine02 0.000000 0.000000 0.000000 0.000000 0.000000 0.000000 10.000000 
spine03 0.000000 0.000000 0.000000 0.000000 0.000000 0.000000 10.000000 
pelvis 0.000000 0.000000 0.000000 0.000000 0.000000 0.000000 10.000000 
null_rope03_connect 0.000000 0.000000 0.000000 0.000000 0.000000 0.000000 10.000000 
null_rope04_connect 0.000000 0.000000 0.000000 0.000000 0.000000 0.000000 10.000000 
Rope3_Seg01 0.000000 0.000000 0.000000 0.000000 0.000000 0.000000 10.000000 
Rope3_Seg02 0.000000 0.000000 0.000000 0.000000 0.000000 0.000000 10.000000 
Rope3_Seg03 0.000000 0.000000 0.000000 0.000000 0.000000 0.000000 10.000000 
Rope3_Seg04 0.000000 0.000000 0.000000 0.000000 0.000000 0.000000 10.000000 
Rope3_Seg05 0.000000 0.000000 0.000000 0.000000 0.000000 0.000000 10.000000 
Rope3_Seg06 0.000000 0.000000 0.000000 0.000000 0.000000 0.000000 10.000000 
Rope3_Seg07 0.000000 0.000000 0.000000 0.000000 0.000000 0.000000 10.000000 
Rope3_Seg08 0.000000 0.000000 0.000000 0.000000 0.000000 0.000000 10.000000 
Rope3_Seg09 0.000000 0.000000 0.000000 0.000000 0.000000 0.000000 10.000000 
R_rear_hand01 0.000000 0.000000 0.000000 0.000000 0.000000 0.000000 10.000000 
R_rear_hand02 0.000000 0.000000 0.000000 0.000000 0.000000 0.000000 10.000000 
R_rear_hand03 0.000000 0.000000 0.000000 0.000000 0.000000 0.000000 10.000000 
Rope4_Seg01 0.000000 0.000000 0.000000 0.000000 0.000000 0.000000 10.000000 
Rope4_Seg02 0.000000 0.000000 0.000000 0.000000 0.000000 0.000000 10.000000 
Rope4_Seg03 0.000000 0.000000 0.000000 0.000000 0.000000 0.000000 10.000000 
Rope4_Seg04 0.000000 0.000000 0.000000 0.000000 0.000000 0.000000 10.000000 
Rope4_Seg05 0.000000 0.000000 0.000000 0.000000 0.000000 0.000000 10.000000 
Rope4_Seg06 0.000000 0.000000 0.000000 0.000000 0.000000 0.000000 10.000000 
Rope4_Seg07 0.000000 0.000000 0.000000 0.000000 0.000000 0.000000 10.000000 
Rope4_Seg08 0.000000 0.000000 0.000000 0.000000 0.000000 0.000000 10.000000 
Rope4_Seg09 0.000000 0.000000 0.000000 0.000000 0.000000 0.000000 10.000000 
L_rear_hand01 0.000000 0.000000 0.000000 0.000000 0.000000 0.000000 10.000000 
L_rear_hand02 0.000000 0.000000 0.000000 0.000000 0.000000 0.000000 10.000000 
L_rear_hand03 0.000000 0.000000 0.000000 0.000000 0.000000 0.000000 10.000000 
#Beginning of Data. Separated by tabs
#Fr	Tx	Ty	Tz	Rx	Ry	Rz	SF
[MASTER]
11 1049.305664 -42.709782 1475.737549 0.001660 0.001660 0.001660 1811.261353
12 1246.994019 -43.137836 1676.616455 0.001660 0.001660 0.001660 2089.951660
[root]
11 77.723541 -9.366741 705.162659 -22.777462 -4.655858 -109.732826 709.494934
12 59.174313 -30.567200 426.006073 -15.854273 -0.489584 -111.593658 431.181091
[chest]
11 -84.512650 -34.090519 0.000000 27.162172 8.731190 -173.683716 91.129311
12 -84.512650 -34.090519 0.000000 35.183987 14.631877 -172.161530 91.129311
[L_mid_tent01]
11 27.299030 22.179258 -249.918777 -0.419251 20.850506 75.006996 252.381744
12 27.299025 22.179274 -249.918793 0.090831 20.518373 78.133614 252.381760
[R_mid_tent01]
11 23.228794 24.509907 226.238495 171.152267 -21.368925 66.930519 228.744751
12 23.228794 24.509907 226.238495 170.562363 -20.933933 67.943947 228.744751
[spine01]
11 -0.361383 -0.195265 0.000000 0.001830 0.001470 12.469875 0.410763
12 -0.361383 -0.195265 0.000000 0.001817 0.001486 11.440243 0.410763
[Bip01_Neck]
11 165.484543 71.581718 0.000119 176.643677 -1.657967 43.431911 180.302734
12 165.484543 71.581718 0.000119 176.643677 -1.657967 43.431911 180.302734
[L_humerus]
11 -13.983130 -135.272980 -120.471481 173.307098 10.100307 -147.780548 181.680161
12 -13.983130 -135.272980 -120.471481 162.945526 37.139503 -148.796219 181.680161
[R_humerus]
11 -13.983309 -135.273102 125.287651 -177.067291 -9.889347 -129.000153 184.909012
12 -13.983309 -135.273102 125.287651 -168.827805 -41.755077 -111.281174 184.909012
[weapon_bone]
11 235.964890 -300.705902 0.000000 0.000000 -89.951546 -128.212341 382.234833
12 235.964890 -300.705902 0.000000 0.000000 -89.951546 -128.212341 382.234833
[Bip01_Head]
11 213.551788 185.416321 15.638580 17.771175 -0.269638 -43.897598 283.245728
12 213.449097 185.702515 11.948236 18.092033 2.345135 -43.884575 283.176086
[eye_left_bone]
11 -24.626970 125.451866 -64.772606 0.000000 -90.000000 -99.840431 143.318359
12 -24.626970 125.451866 -64.772606 0.000000 -90.000000 -99.840431 143.318359
[eye_right_bone]
11 -24.626970 125.451866 64.327362 0.000000 -89.965736 80.156380 143.117676
12 -24.626970 125.451866 64.327362 0.000000 -89.965736 80.156380 143.117676
[L_forearm]
11 322.776093 0.000000 -0.000119 0.000431 -0.002307 -111.137779 322.776093
12 322.776093 0.000000 -0.000119 0.000431 -0.002307 -111.167747 322.776093
[L_front_hand]
11 241.149185 -0.042021 -3.300071 -178.667953 -1.835447 -27.422350 241.171753
12 241.149185 -0.042021 -3.300071 -178.667953 -1.835447 -27.422350 241.171753
[L_weapon_bone]
11 156.183838 0.000000 0.000000 0.000014 0.000007 0.000001 156.183838
12 156.183838 0.000000 0.000000 0.000014 0.000007 0.000001 156.183838
[L_front_hand01_01]
11 86.095154 20.947098 -0.655860 -0.273295 -0.533469 64.985298 88.609184
12 86.095154 20.947098 -0.655860 -0.274251 -0.532978 65.190620 88.609184
[L_front_hand02_01]
11 86.935165 -11.437475 24.513514 140.772385 -54.262844 -45.183468 91.046425
12 86.935165 -11.437475 24.513514 140.993607 -54.388721 -45.452248 91.046425
[L_front_hand03_01]
11 86.637497 -14.123976 -20.424902 -141.183044 52.494118 -47.265888 90.126129
12 86.637497 -14.123976 -20.424902 -141.389969 52.619431 -47.524094 90.126129
[L_front_hand01_02]
11 71.020905 -0.000179 0.000030 0.000315 -0.002326 -105.406754 71.020905
12 71.020905 -0.000179 0.000030 0.000315 -0.002326 -105.400543 71.020905
[L_front_hand02_02]
11 71.020927 -0.000119 0.000060 0.000315 -0.002326 -105.406754 71.020927
12 71.020927 -0.000119 0.000060 0.000315 -0.002326 -105.400543 71.020927
[L_front_hand03_02]
11 71.020905 -0.000060 0.000060 0.000315 -0.002326 -105.406754 71.020905
12 71.020905 -0.000060 0.000060 0.000315 -0.002326 -105.400543 71.020905
[R_forearm]
11 322.776428 -0.000060 0.000030 0.201100 0.068189 -109.785881 322.776428
12 322.776428 -0.000060 0.000030 0.201070 0.068279 -109.837257 322.776428
[R_front_hand]
11 238.847015 -0.006795 2.210259 -2.635298 -10.645461 -26.312506 238.857239
12 238.847015 -0.006795 2.210259 -2.635298 -10.645461 -26.312506 238.857239
[R_weapon_bone]
11 155.664093 0.002503 -0.000030 0.003487 0.001180 -90.988930 155.664078
12 155.664093 0.002503 -0.000030 0.003487 0.001180 -90.988930 155.664078
[R_front_hand01_01]
11 87.624611 14.231146 22.918642 -138.890259 -53.085796 42.950848 91.683487
12 87.624611 14.231146 22.918642 -138.456909 -52.798618 42.405617 91.683487
[R_front_hand02_01]
11 89.356956 14.367283 -19.491137 139.720169 51.522045 45.641415 92.579636
12 89.356956 14.367283 -19.491137 139.300415 51.240429 45.105949 92.579636
[R_front_hand03_01]
11 87.286232 -22.307278 -0.143439 0.065790 -0.451534 -63.409447 90.091743
12 87.286232 -22.307278 -0.143439 0.064051 -0.451784 -62.968155 90.091743
[R_front_hand01_02]
11 71.020905 0.000060 0.000119 0.002323 -0.000334 106.381714 71.020905
12 71.020905 0.000060 0.000119 0.002323 -0.000334 106.381714 71.020905
[R_front_hand02_02]
11 71.020844 -0.000030 -0.000119 0.002323 -0.000334 106.381714 71.020836
12 71.020844 -0.000030 -0.000119 0.002323 -0.000334 106.381714 71.020836
[R_front_hand03_02]
11 71.020905 0.000000 0.000030 0.002323 -0.000334 106.381714 71.020905
12 71.020905 0.000000 0.000030 0.002323 -0.000334 106.381714 71.020905
[null_rope01_connect]
11 328.732483 0.000000 -0.000238 -19.122673 -39.197083 44.393032 328.732483
12 328.732483 0.000000 -0.000238 -18.962444 -31.322527 39.620625 328.732483
[Rope1_Seg01]
11 0.000000 0.000000 0.000000 -61.402172 62.395187 115.220650 0.000000
12 0.000000 0.000000 0.000000 -35.024757 48.366539 135.334839 0.000000
[Rope1_Seg02]
11 139.999863 -0.000179 0.000000 -9.973029 19.522495 -16.060238 139.999863
12 139.999863 -0.000179 0.000000 -7.052626 19.327015 -16.490202 139.999863
[Rope1_Seg03]
11 139.999924 0.000060 -0.000060 -38.022160 17.979578 -8.009769 139.999924
12 139.999924 0.000060 -0.000060 -33.044334 22.561319 -11.739773 139.999924
[Rope1_Seg04]
11 139.999924 -0.000060 -0.000119 -69.275703 14.107097 0.285652 139.999924
12 139.999924 -0.000060 -0.000119 -65.313782 16.009100 -1.918785 139.999924
[Rope1_Seg05]
11 139.999832 0.000119 -0.000060 -50.311287 12.105488 15.868056 139.999832
12 139.999832 0.000119 -0.000060 -72.254036 19.896235 10.567080 139.999832
[Rope1_Seg06]
11 139.999954 0.000119 -0.000060 -10.093751 -3.632257 14.616067 139.999954
12 139.999954 0.000119 -0.000060 -13.837613 -3.110820 18.152817 139.999954
[Rope1_Seg07]
11 139.999985 0.000060 0.000000 -2.487412 -3.654389 7.440847 139.999985
12 139.999985 0.000060 0.000000 -2.522495 -4.295649 8.276276 139.999985
[Rope1_Seg09]
11 121.602913 0.000119 -0.000089 -89.793175 -1.359789 0.847147 121.602913
12 121.602913 0.000119 -0.000089 -89.793175 -1.359789 0.847147 121.602913
[L_mid_hand01]
11 103.859421 1.038730 8.195221 109.056198 -40.604698 -13.201401 104.187431
12 103.859421 1.038730 8.195221 109.203865 -41.086704 -13.424594 104.187431
[L_mid_hand02]
11 105.572853 -4.139662 -10.864139 -146.713593 31.476528 -37.902313 106.211075
12 105.572853 -4.139662 -10.864139 -146.975464 31.757519 -38.401615 106.211075
[L_mid_hand03]
11 104.641464 17.579376 -3.913581 -14.267233 12.322316 43.898396 106.179977
12 104.641464 17.579376 -3.913581 -14.157614 12.442542 44.406353 106.179977
[null_rope02_connect]
11 328.732849 0.000179 -0.000119 -161.956375 12.793892 -39.387646 328.732849
12 328.732849 0.000179 -0.000119 -164.054993 6.004207 -42.240162 328.732849
[Rope2_Seg01]
11 0.000019 0.000140 0.000203 -21.269623 -73.486946 -174.223572 0.000248
12 0.000015 0.000142 0.000224 -8.866477 -65.491745 172.654785 0.000266
[Rope2_Seg02]
11 139.999741 -0.000060 -0.000119 -1.196838 -7.359754 -8.940991 139.999756
12 139.999741 -0.000060 -0.000119 0.722085 -7.063835 -10.274098 139.999756
[Rope2_Seg03]
11 140.000107 0.000030 0.000000 -2.255524 -9.511240 -12.673846 140.000107
12 140.000107 0.000030 0.000000 0.522876 -8.666961 -13.865003 140.000107
[Rope2_Seg04]
11 139.999802 0.000000 -0.000060 -3.181686 -8.743235 -14.062942 139.999802
12 139.999802 0.000000 -0.000060 -0.054312 -6.718963 -13.771248 139.999802
[Rope2_Seg05]
11 139.999985 -0.000060 0.000119 -4.654250 -12.221029 -18.260956 139.999985
12 139.999985 -0.000060 0.000119 -0.630345 -17.330156 -16.469330 139.999985
[Rope2_Seg06]
11 139.999893 -0.000030 -0.000119 -5.390369 -10.159814 -17.889336 139.999893
12 139.999893 -0.000030 -0.000119 -5.167123 -22.020422 -19.983953 139.999893
[Rope2_Seg07]
11 139.999893 0.000060 -0.000060 -3.326241 -3.989750 -9.985193 139.999893
12 139.999893 0.000060 -0.000060 -5.650137 -8.697118 -11.423366 139.999893
[Rope2_Seg09]
11 121.338966 0.000089 -0.000060 33.793236 -1.359788 -0.847141 121.338966
12 121.338966 0.000089 -0.000060 33.793236 -1.359788 -0.847141 121.338966
[R_mid_hand01]
11 104.680779 11.144459 -10.335981 -33.085678 36.191685 44.913235 105.778534
12 104.680779 11.144459 -10.335981 -34.514385 34.853703 42.458717 105.778534
[R_mid_hand02]
11 104.070427 2.443552 8.231699 67.611237 -49.370296 17.897308 104.424065
12 104.070427 2.443552 8.231699 68.611877 -47.139290 16.550774 104.424065
[R_mid_hand03]
11 106.028137 -11.221827 -5.996406 -171.571182 13.427420 -54.737041 106.788818
12 106.028137 -11.221827 -5.996406 -171.008881 13.064260 -52.295338 106.788818
[spine02]
11 129.756927 0.001550 0.000119 0.531070 -4.024792 -15.399447 129.756927
12 129.756927 0.001550 0.000119 0.537911 -4.023872 -15.454615 129.756927
[spine03]
11 78.614067 0.081075 -4.898992 2.009444 3.773427 18.197844 78.766602
12 78.614067 0.081019 -4.898991 2.004356 3.775223 18.117527 78.766602
[pelvis]
11 169.435242 0.051022 0.000000 -0.035783 -0.187096 6.241805 169.435257
12 169.435242 0.051022 0.000000 -0.031087 -0.190086 4.820236 169.435257
[null_rope03_connect]
11 -1.257226 -2.466202 137.391083 -3.170514 -21.744473 89.719696 137.418976
12 -1.257226 -2.466202 137.391083 -4.916416 -13.716125 93.325790 137.418976
[null_rope04_connect]
11 -1.259640 -2.480268 -137.844437 -3.170514 -21.744473 89.719696 137.872513
12 -1.259640 -2.480268 -137.844437 -4.916416 -13.716125 93.325790 137.872513
[Rope3_Seg01]
11 0.000000 0.000000 0.000000 25.121765 -40.084080 -84.981987 0.000000
12 0.000000 0.000000 0.000000 37.164665 -43.609329 -101.114746 0.000000
[Rope3_Seg02]
11 139.999924 -0.000119 0.000060 1.605088 -5.706525 18.610243 139.999924
12 139.999924 -0.000119 0.000060 4.210104 -2.357879 20.589600 139.999924
[Rope3_Seg03]
11 139.999924 -0.000119 0.000119 -1.764072 -8.267388 17.493139 139.999924
12 139.999924 -0.000119 0.000119 0.345314 -3.095216 20.937830 139.999924
[Rope3_Seg04]
11 139.999924 0.000119 0.000000 -2.805818 -6.064450 12.235957 139.999924
12 139.999924 0.000119 0.000000 -2.058088 -1.990304 14.826138 139.999924
[Rope3_Seg05]
11 139.999924 -0.000238 0.000060 1.395584 9.170559 13.456599 139.999924
12 139.999924 -0.000238 0.000060 0.918247 7.604617 11.726239 139.999924
[Rope3_Seg06]
11 139.999893 -0.000119 -0.000060 5.752880 13.142188 12.524479 139.999893
12 139.999893 -0.000119 -0.000060 3.537540 9.602692 9.405196 139.999893
[Rope3_Seg07]
11 139.999771 0.000060 -0.000119 2.620641 5.894908 6.539911 139.999771
12 139.999771 0.000060 -0.000119 1.429654 4.571713 5.723852 139.999771
[Rope3_Seg08]
11 139.999985 -0.000060 0.000000 2.148904 3.531805 3.646563 139.999985
12 139.999985 -0.000060 0.000000 1.153271 2.793239 3.384599 139.999985
[Rope3_Seg09]
11 90.185997 -0.000179 -0.000060 89.793228 -1.359877 -0.847183 90.185997
12 90.185997 -0.000179 -0.000060 89.793228 -1.359877 -0.847183 90.185997
[R_rear_hand01]
11 103.366196 -6.073594 -10.757982 -167.001480 21.149061 -46.791374 104.101845
12 103.366196 -6.073594 -10.757982 -166.071487 20.559359 -44.173782 104.101845
[R_rear_hand02]
11 100.509819 12.039542 -7.992327 -28.108641 27.848612 44.189137 101.543350
12 100.509819 12.039542 -7.992327 -29.245224 26.638000 41.706207 101.543350
[R_rear_hand03]
11 101.539970 5.215704 5.435467 81.609138 -47.214466 10.038949 101.819031
12 101.539970 5.215704 5.435467 81.983536 -44.720295 9.521895 101.819031
[Rope4_Seg01]
11 0.000099 -0.000038 -0.000153 -105.156662 59.410202 -100.768669 0.000186
12 0.000109 -0.000038 -0.000153 -104.644264 60.827015 -99.786140 0.000192
[Rope4_Seg02]
11 139.999985 0.000060 0.000119 0.748112 -11.169621 -6.151889 139.999985
12 139.999985 0.000060 0.000119 -0.034852 -12.171354 -2.456794 139.999985
[Rope4_Seg03]
11 139.999924 0.000000 -0.000238 0.564172 -11.030139 -6.231953 139.999924
12 139.999924 0.000000 -0.000238 0.633437 -12.669738 -2.462347 139.999924
[Rope4_Seg04]
11 139.999985 0.000000 0.000119 -0.273780 -6.416198 -5.344594 139.999985
12 139.999985 0.000000 0.000119 1.021289 -8.485585 -0.307192 139.999985
[Rope4_Seg05]
11 139.999802 -0.000060 -0.000119 0.408997 -8.588176 -3.903261 139.999802
12 139.999802 -0.000060 -0.000119 1.279892 -10.614531 -2.794847 139.999802
[Rope4_Seg06]
11 139.999924 0.000000 0.000060 4.117172 -18.597218 -5.001417 139.999924
12 139.999924 0.000000 0.000060 4.232049 -23.251598 -9.071657 139.999924
[Rope4_Seg07]
11 139.999802 0.000000 0.000000 16.293198 -23.421295 -4.677695 139.999802
12 139.999802 0.000000 0.000000 20.463812 -25.126040 -8.593185 139.999802
[Rope4_Seg08]
11 139.999924 0.000000 0.000119 37.218765 -13.148878 0.739628 139.999924
12 139.999924 0.000000 0.000119 112.816452 -13.066033 0.399533 139.999924
[Rope4_Seg09]
11 90.185791 0.000060 0.000060 -135.617828 2.228885 0.850567 90.185791
12 90.185791 0.000060 0.000060 -135.617828 2.228885 0.850567 90.185791
[L_rear_hand01]
11 101.696655 -8.392275 -7.654577 -30.608620 -25.023813 141.417831 102.329041
12 101.696655 -8.392275 -7.654577 -29.807383 -26.000994 139.554398 102.329041
[L_rear_hand02]
11 102.726799 -1.568258 5.773216 82.398407 41.509426 171.081650 102.900848
12 102.726799 -1.568258 5.773216 82.157761 43.437943 170.726135 102.900848
[L_rear_hand03]
11 104.552910 9.721220 -10.420293 -164.917755 -19.749290 -139.167572 105.519653
12 104.552910 9.721220 -10.420293 -165.604721 -20.244781 -137.169205 105.519653
